<mxfile host="65bd71144e">
    <diagram id="mRfl5f8I7EvicKER9gd0" name="Page-1">
        <mxGraphModel dx="1424" dy="2254" grid="1" gridSize="10" guides="1" tooltips="1" connect="1" arrows="1" fold="1" page="1" pageScale="1" pageWidth="850" pageHeight="1100" math="0" shadow="0">
            <root>
                <mxCell id="0"/>
                <mxCell id="1" parent="0"/>
                <mxCell id="396" value="" style="group;rotation=90;" parent="1" vertex="1" connectable="0">
                    <mxGeometry x="66.82" y="-372" width="14" height="12" as="geometry"/>
                </mxCell>
                <mxCell id="393" value="" style="endArrow=none;html=1;labelBackgroundColor=#FFCCCC;fontFamily=Helvetica;fontSize=3;strokeWidth=0.3;" parent="396" edge="1">
                    <mxGeometry width="50" height="50" relative="1" as="geometry">
                        <mxPoint x="3" y="10" as="sourcePoint"/>
                        <mxPoint x="13" as="targetPoint"/>
                    </mxGeometry>
                </mxCell>
                <mxCell id="394" value="" style="endArrow=none;html=1;labelBackgroundColor=#FFCCCC;fontFamily=Helvetica;fontSize=3;strokeWidth=0.3;" parent="396" edge="1">
                    <mxGeometry width="50" height="50" relative="1" as="geometry">
                        <mxPoint x="3" y="13" as="sourcePoint"/>
                        <mxPoint x="13" y="3" as="targetPoint"/>
                    </mxGeometry>
                </mxCell>
                <mxCell id="395" value="" style="endArrow=none;html=1;labelBackgroundColor=#FFCCCC;fontFamily=Helvetica;fontSize=3;strokeWidth=0.3;" parent="396" edge="1">
                    <mxGeometry width="50" height="50" relative="1" as="geometry">
                        <mxPoint x="1" y="9" as="sourcePoint"/>
                        <mxPoint x="11" y="-1" as="targetPoint"/>
                    </mxGeometry>
                </mxCell>
                <mxCell id="390" value="" style="endArrow=none;html=1;labelBackgroundColor=#FFCCCC;fontFamily=Helvetica;fontSize=3;strokeWidth=0.3;" parent="1" edge="1">
                    <mxGeometry width="50" height="50" relative="1" as="geometry">
                        <mxPoint x="186.82" y="-398" as="sourcePoint"/>
                        <mxPoint x="176.82" y="-408" as="targetPoint"/>
                    </mxGeometry>
                </mxCell>
                <mxCell id="391" value="" style="endArrow=none;html=1;labelBackgroundColor=#FFCCCC;fontFamily=Helvetica;fontSize=3;strokeWidth=0.3;" parent="1" edge="1">
                    <mxGeometry width="50" height="50" relative="1" as="geometry">
                        <mxPoint x="189.82" y="-398" as="sourcePoint"/>
                        <mxPoint x="179.82" y="-408" as="targetPoint"/>
                    </mxGeometry>
                </mxCell>
                <mxCell id="392" value="" style="endArrow=none;html=1;labelBackgroundColor=#FFCCCC;fontFamily=Helvetica;fontSize=3;strokeWidth=0.3;" parent="1" edge="1">
                    <mxGeometry width="50" height="50" relative="1" as="geometry">
                        <mxPoint x="185.82" y="-396" as="sourcePoint"/>
                        <mxPoint x="175.82" y="-406" as="targetPoint"/>
                    </mxGeometry>
                </mxCell>
                <mxCell id="386" value="" style="group;rotation=-25;" parent="1" vertex="1" connectable="0">
                    <mxGeometry x="125.64000000000004" y="-382" width="14" height="12" as="geometry"/>
                </mxCell>
                <mxCell id="383" value="" style="endArrow=none;html=1;labelBackgroundColor=#FFCCCC;fontFamily=Helvetica;fontSize=3;strokeWidth=0.3;" parent="386" edge="1">
                    <mxGeometry width="50" height="50" relative="1" as="geometry">
                        <mxPoint x="13" y="8" as="sourcePoint"/>
                        <mxPoint y="4" as="targetPoint"/>
                    </mxGeometry>
                </mxCell>
                <mxCell id="384" value="" style="endArrow=none;html=1;labelBackgroundColor=#FFCCCC;fontFamily=Helvetica;fontSize=3;strokeWidth=0.3;" parent="386" edge="1">
                    <mxGeometry width="50" height="50" relative="1" as="geometry">
                        <mxPoint x="15" y="6" as="sourcePoint"/>
                        <mxPoint x="2" y="2" as="targetPoint"/>
                    </mxGeometry>
                </mxCell>
                <mxCell id="385" value="" style="endArrow=none;html=1;labelBackgroundColor=#FFCCCC;fontFamily=Helvetica;fontSize=3;strokeWidth=0.3;" parent="386" edge="1">
                    <mxGeometry width="50" height="50" relative="1" as="geometry">
                        <mxPoint x="12" y="10" as="sourcePoint"/>
                        <mxPoint x="-1" y="6" as="targetPoint"/>
                    </mxGeometry>
                </mxCell>
                <mxCell id="380" value="" style="endArrow=none;html=1;labelBackgroundColor=#FFCCCC;fontFamily=Helvetica;fontSize=3;strokeWidth=0.3;" parent="1" edge="1">
                    <mxGeometry width="50" height="50" relative="1" as="geometry">
                        <mxPoint x="131.82" y="-345" as="sourcePoint"/>
                        <mxPoint x="121.82" y="-355" as="targetPoint"/>
                    </mxGeometry>
                </mxCell>
                <mxCell id="381" value="" style="endArrow=none;html=1;labelBackgroundColor=#FFCCCC;fontFamily=Helvetica;fontSize=3;strokeWidth=0.3;" parent="1" edge="1">
                    <mxGeometry width="50" height="50" relative="1" as="geometry">
                        <mxPoint x="134.82" y="-345" as="sourcePoint"/>
                        <mxPoint x="124.82" y="-355" as="targetPoint"/>
                    </mxGeometry>
                </mxCell>
                <mxCell id="382" value="" style="endArrow=none;html=1;labelBackgroundColor=#FFCCCC;fontFamily=Helvetica;fontSize=3;strokeWidth=0.3;" parent="1" edge="1">
                    <mxGeometry width="50" height="50" relative="1" as="geometry">
                        <mxPoint x="130.82" y="-343" as="sourcePoint"/>
                        <mxPoint x="120.82" y="-353" as="targetPoint"/>
                    </mxGeometry>
                </mxCell>
                <mxCell id="206" value="" style="rounded=0;whiteSpace=wrap;html=1;shadow=0;strokeColor=default;fillColor=#E8E8E8;" parent="1" vertex="1">
                    <mxGeometry x="25" y="-950" width="200" height="300" as="geometry"/>
                </mxCell>
                <mxCell id="198" value="" style="rounded=0;whiteSpace=wrap;html=1;shadow=0;strokeColor=default;fillColor=#B8B8B8;" parent="1" vertex="1">
                    <mxGeometry x="625" y="-950" width="200" height="300" as="geometry"/>
                </mxCell>
                <mxCell id="197" value="" style="rounded=0;whiteSpace=wrap;html=1;shadow=0;strokeColor=default;fillColor=#B8B8B8;" parent="1" vertex="1">
                    <mxGeometry x="425" y="-950" width="200" height="300" as="geometry"/>
                </mxCell>
                <mxCell id="178" value="" style="rounded=0;whiteSpace=wrap;html=1;shadow=0;strokeColor=default;fillColor=#B8B8B8;" parent="1" vertex="1">
                    <mxGeometry x="225" y="-950" width="200" height="300" as="geometry"/>
                </mxCell>
                <mxCell id="14" value="&lt;font face=&quot;Courier New&quot;&gt;&amp;nbsp;(begin&lt;br&gt;&amp;nbsp; &amp;nbsp;(eat &quot;&lt;/font&gt;&lt;span style=&quot;font-family: &amp;#34;courier new&amp;#34;&quot;&gt;apple&lt;/span&gt;&lt;font face=&quot;Courier New&quot;&gt;&quot;)&lt;br&gt;&amp;nbsp; &amp;nbsp;(touch nose))&lt;/font&gt;" style="rounded=1;whiteSpace=wrap;html=1;align=left;" parent="1" vertex="1">
                    <mxGeometry x="30" y="-890" width="190" height="60" as="geometry"/>
                </mxCell>
                <mxCell id="163" value="" style="group" parent="1" vertex="1" connectable="0">
                    <mxGeometry x="285" y="-810" width="80" height="120" as="geometry"/>
                </mxCell>
                <mxCell id="162" value="" style="rounded=0;whiteSpace=wrap;html=1;fontFamily=Courier New;" parent="163" vertex="1">
                    <mxGeometry width="80" height="120" as="geometry"/>
                </mxCell>
                <mxCell id="93" value="" style="group" parent="163" vertex="1" connectable="0">
                    <mxGeometry x="8" y="8.00000000000009" width="64" height="111.256" as="geometry"/>
                </mxCell>
                <mxCell id="71" value="b'" style="ellipse;whiteSpace=wrap;html=1;aspect=fixed;fillColor=#1ba1e2;strokeColor=#006EAF;fontColor=#ffffff;" parent="93" vertex="1">
                    <mxGeometry x="32" y="28" width="16" height="16" as="geometry"/>
                </mxCell>
                <mxCell id="73" value="" style="endArrow=none;html=1;" parent="93" source="71" target="84" edge="1">
                    <mxGeometry width="50" height="50" relative="1" as="geometry">
                        <mxPoint x="232" y="16" as="sourcePoint"/>
                        <mxPoint x="27.969111506854645" y="57.054054863004424" as="targetPoint"/>
                    </mxGeometry>
                </mxCell>
                <mxCell id="74" value="f'" style="ellipse;whiteSpace=wrap;html=1;aspect=fixed;fillColor=#1ba1e2;strokeColor=#006EAF;fontColor=#ffffff;" parent="93" vertex="1">
                    <mxGeometry x="48" y="56" width="16" height="16" as="geometry"/>
                </mxCell>
                <mxCell id="75" value="" style="endArrow=none;html=1;" parent="93" source="71" target="74" edge="1">
                    <mxGeometry width="50" height="50" relative="1" as="geometry">
                        <mxPoint x="13.384912814753262" y="-13.987976152059218" as="sourcePoint"/>
                        <mxPoint x="2.656402354703278" y="2.015396467944902" as="targetPoint"/>
                    </mxGeometry>
                </mxCell>
                <mxCell id="81" value="a'" style="ellipse;whiteSpace=wrap;html=1;aspect=fixed;fillColor=#1ba1e2;strokeColor=#006EAF;fontColor=#ffffff;" parent="93" vertex="1">
                    <mxGeometry width="16" height="16" as="geometry"/>
                </mxCell>
                <mxCell id="83" value="" style="endArrow=none;html=1;" parent="93" source="81" target="71" edge="1">
                    <mxGeometry width="50" height="50" relative="1" as="geometry">
                        <mxPoint x="-18.61508718524674" y="-41.98797615205922" as="sourcePoint"/>
                        <mxPoint x="20.010446462151414" y="29.06577599373932" as="targetPoint"/>
                    </mxGeometry>
                </mxCell>
                <mxCell id="84" value="c'" style="ellipse;whiteSpace=wrap;html=1;aspect=fixed;fillColor=#008a00;strokeColor=#005700;fontColor=#ffffff;" parent="93" vertex="1">
                    <mxGeometry x="16" y="56" width="16" height="16" as="geometry"/>
                </mxCell>
                <mxCell id="85" value="d'" style="ellipse;whiteSpace=wrap;html=1;aspect=fixed;fillColor=#008a00;strokeColor=#005700;fontColor=#ffffff;" parent="93" vertex="1">
                    <mxGeometry y="84" width="16" height="16" as="geometry"/>
                </mxCell>
                <mxCell id="86" value="" style="endArrow=none;html=1;" parent="93" source="84" target="85" edge="1">
                    <mxGeometry width="50" height="50" relative="1" as="geometry">
                        <mxPoint x="216" y="44" as="sourcePoint"/>
                        <mxPoint x="256" y="4" as="targetPoint"/>
                    </mxGeometry>
                </mxCell>
                <mxCell id="87" value="e'" style="ellipse;whiteSpace=wrap;html=1;aspect=fixed;fillColor=#008a00;strokeColor=#005700;fontColor=#ffffff;" parent="93" vertex="1">
                    <mxGeometry x="32" y="84" width="16" height="16" as="geometry"/>
                </mxCell>
                <mxCell id="88" value="" style="endArrow=none;html=1;" parent="93" source="84" target="87" edge="1">
                    <mxGeometry width="50" height="50" relative="1" as="geometry">
                        <mxPoint x="-2.615087185246739" y="14.012023847940782" as="sourcePoint"/>
                        <mxPoint x="-13.343597645296724" y="30.015396467944903" as="targetPoint"/>
                    </mxGeometry>
                </mxCell>
                <mxCell id="164" value="" style="group" parent="1" vertex="1" connectable="0">
                    <mxGeometry x="266.82" y="-900" width="116.36" height="80" as="geometry"/>
                </mxCell>
                <mxCell id="160" value="" style="rounded=0;whiteSpace=wrap;html=1;fontFamily=Courier New;" parent="164" vertex="1">
                    <mxGeometry width="116.35999999999999" height="80" as="geometry"/>
                </mxCell>
                <mxCell id="89" value="" style="group" parent="164" vertex="1" connectable="0">
                    <mxGeometry x="7.272499999999999" y="7.272727272727273" width="101.815" height="65.45454545454545" as="geometry"/>
                </mxCell>
                <mxCell id="56" value="e" style="ellipse;whiteSpace=wrap;html=1;aspect=fixed;fillColor=#1ba1e2;strokeColor=#006EAF;fontColor=#ffffff;" parent="89" vertex="1">
                    <mxGeometry x="72.725" y="25.454545454545457" width="14.544999999999998" height="14.544999999999998" as="geometry"/>
                </mxCell>
                <mxCell id="57" value="f" style="ellipse;whiteSpace=wrap;html=1;aspect=fixed;fillColor=#1ba1e2;strokeColor=#006EAF;fontColor=#ffffff;" parent="89" vertex="1">
                    <mxGeometry x="58.17999999999999" y="50.909090909090914" width="14.544999999999998" height="14.544999999999998" as="geometry"/>
                </mxCell>
                <mxCell id="58" value="" style="endArrow=none;html=1;" parent="89" source="56" target="57" edge="1">
                    <mxGeometry width="50" height="50" relative="1" as="geometry">
                        <mxPoint x="254.5375" y="14.545454545454547" as="sourcePoint"/>
                        <mxPoint x="290.9" y="-21.81818181818182" as="targetPoint"/>
                    </mxGeometry>
                </mxCell>
                <mxCell id="59" value="g" style="ellipse;whiteSpace=wrap;html=1;aspect=fixed;fillColor=#1ba1e2;strokeColor=#006EAF;fontColor=#ffffff;" parent="89" vertex="1">
                    <mxGeometry x="87.27" y="50.909090909090914" width="14.544999999999998" height="14.544999999999998" as="geometry"/>
                </mxCell>
                <mxCell id="60" value="" style="endArrow=none;html=1;" parent="89" source="56" target="59" edge="1">
                    <mxGeometry width="50" height="50" relative="1" as="geometry">
                        <mxPoint x="55.80272230566163" y="-12.716341956417471" as="sourcePoint"/>
                        <mxPoint x="46.049835765572446" y="1.832178607222638" as="targetPoint"/>
                    </mxGeometry>
                </mxCell>
                <mxCell id="61" value="b" style="ellipse;whiteSpace=wrap;html=1;aspect=fixed;fillColor=#008a00;strokeColor=#005700;fontColor=#ffffff;" parent="89" vertex="1">
                    <mxGeometry x="14.544999999999998" y="25.454545454545457" width="14.544999999999998" height="14.544999999999998" as="geometry"/>
                </mxCell>
                <mxCell id="62" value="c" style="ellipse;whiteSpace=wrap;html=1;aspect=fixed;fillColor=#008a00;strokeColor=#005700;fontColor=#ffffff;" parent="89" vertex="1">
                    <mxGeometry y="50.909090909090914" width="14.544999999999998" height="14.544999999999998" as="geometry"/>
                </mxCell>
                <mxCell id="63" value="" style="endArrow=none;html=1;" parent="89" source="61" target="62" edge="1">
                    <mxGeometry width="50" height="50" relative="1" as="geometry">
                        <mxPoint x="196.3575" y="14.545454545454547" as="sourcePoint"/>
                        <mxPoint x="232.71999999999997" y="-21.81818181818182" as="targetPoint"/>
                    </mxGeometry>
                </mxCell>
                <mxCell id="64" value="d" style="ellipse;whiteSpace=wrap;html=1;aspect=fixed;fillColor=#008a00;strokeColor=#005700;fontColor=#ffffff;" parent="89" vertex="1">
                    <mxGeometry x="29.089999999999996" y="50.909090909090914" width="14.544999999999998" height="14.544999999999998" as="geometry"/>
                </mxCell>
                <mxCell id="65" value="" style="endArrow=none;html=1;" parent="89" source="61" target="64" edge="1">
                    <mxGeometry width="50" height="50" relative="1" as="geometry">
                        <mxPoint x="-2.3772776943383636" y="-12.716341956417471" as="sourcePoint"/>
                        <mxPoint x="-12.130164234427552" y="1.832178607222638" as="targetPoint"/>
                    </mxGeometry>
                </mxCell>
                <mxCell id="66" value="a" style="ellipse;whiteSpace=wrap;html=1;aspect=fixed;fillColor=#1ba1e2;strokeColor=#006EAF;fontColor=#ffffff;" parent="89" vertex="1">
                    <mxGeometry x="43.635" width="14.544999999999998" height="14.544999999999998" as="geometry"/>
                </mxCell>
                <mxCell id="68" value="" style="endArrow=none;html=1;" parent="89" source="66" target="61" edge="1">
                    <mxGeometry width="50" height="50" relative="1" as="geometry">
                        <mxPoint x="225.4475" y="-10.90909090909091" as="sourcePoint"/>
                        <mxPoint x="39.98925351300056" y="26.423432721581197" as="targetPoint"/>
                    </mxGeometry>
                </mxCell>
                <mxCell id="70" value="" style="endArrow=none;html=1;" parent="89" source="66" target="56" edge="1">
                    <mxGeometry width="50" height="50" relative="1" as="geometry">
                        <mxPoint x="26.712722305661636" y="-38.170887410962926" as="sourcePoint"/>
                        <mxPoint x="61.82574648699951" y="26.423432721581197" as="targetPoint"/>
                    </mxGeometry>
                </mxCell>
                <mxCell id="189" value="" style="group" parent="1" vertex="1" connectable="0">
                    <mxGeometry x="647.5" y="-845" width="155" height="90" as="geometry"/>
                </mxCell>
                <mxCell id="187" value="&amp;nbsp;1.&lt;br&gt;&lt;br&gt;&lt;br&gt;&amp;nbsp;2." style="rounded=1;whiteSpace=wrap;html=1;align=left;arcSize=9;" parent="189" vertex="1">
                    <mxGeometry width="155" height="90" as="geometry"/>
                </mxCell>
                <mxCell id="184" value="" style="group" parent="189" vertex="1" connectable="0">
                    <mxGeometry x="20" y="9" width="75" height="30" as="geometry"/>
                </mxCell>
                <mxCell id="144" value="&amp;nbsp;Delete" style="rounded=1;whiteSpace=wrap;html=1;align=left;" parent="184" vertex="1">
                    <mxGeometry width="75" height="30" as="geometry"/>
                </mxCell>
                <mxCell id="146" value="f" style="ellipse;whiteSpace=wrap;html=1;aspect=fixed;fillColor=#1ba1e2;strokeColor=#006EAF;fontColor=#ffffff;" parent="184" vertex="1">
                    <mxGeometry x="45" y="5" width="20" height="20" as="geometry"/>
                </mxCell>
                <mxCell id="145" value="&amp;nbsp;Move&amp;nbsp; &amp;nbsp; &amp;nbsp; &amp;nbsp; &amp;nbsp; &amp;nbsp; &amp;nbsp; &amp;nbsp; &amp;nbsp; &amp;nbsp; &amp;nbsp;0" style="rounded=1;whiteSpace=wrap;html=1;align=left;" parent="189" vertex="1">
                    <mxGeometry x="20" y="51" width="125" height="30" as="geometry"/>
                </mxCell>
                <mxCell id="185" value="" style="group" parent="189" vertex="1" connectable="0">
                    <mxGeometry x="20" y="50" width="125" height="30" as="geometry"/>
                </mxCell>
                <mxCell id="149" value="b" style="ellipse;whiteSpace=wrap;html=1;aspect=fixed;fillColor=#008a00;strokeColor=#005700;fontColor=#ffffff;" parent="185" vertex="1">
                    <mxGeometry x="45" y="5" width="20" height="20" as="geometry"/>
                </mxCell>
                <mxCell id="150" value="e" style="ellipse;whiteSpace=wrap;html=1;aspect=fixed;fillColor=#1ba1e2;strokeColor=#006EAF;fontColor=#ffffff;" parent="185" vertex="1">
                    <mxGeometry x="75" y="5" width="20" height="20" as="geometry"/>
                </mxCell>
                <mxCell id="192" value="" style="group" parent="1" vertex="1" connectable="0">
                    <mxGeometry x="485" y="-900" width="80" height="200" as="geometry"/>
                </mxCell>
                <mxCell id="190" value="" style="rounded=1;whiteSpace=wrap;html=1;align=left;arcSize=9;" parent="192" vertex="1">
                    <mxGeometry width="80" height="200" as="geometry"/>
                </mxCell>
                <mxCell id="143" value="" style="group" parent="192" vertex="1" connectable="0">
                    <mxGeometry x="9.129999999999995" y="10" width="60.87" height="175" as="geometry"/>
                </mxCell>
                <mxCell id="123" value="a" style="ellipse;whiteSpace=wrap;html=1;aspect=fixed;fillColor=#1ba1e2;strokeColor=#006EAF;fontColor=#ffffff;" parent="143" vertex="1">
                    <mxGeometry width="22.826086956521742" height="22.826086956521742" as="geometry"/>
                </mxCell>
                <mxCell id="124" value="a'" style="ellipse;whiteSpace=wrap;html=1;aspect=fixed;fillColor=#1ba1e2;strokeColor=#006EAF;fontColor=#ffffff;" parent="143" vertex="1">
                    <mxGeometry x="38.043749999999996" width="22.826086956521742" height="22.826086956521742" as="geometry"/>
                </mxCell>
                <mxCell id="125" style="edgeStyle=none;html=1;fontFamily=Courier New;" parent="143" source="123" target="124" edge="1">
                    <mxGeometry relative="1" as="geometry"/>
                </mxCell>
                <mxCell id="127" value="b" style="ellipse;whiteSpace=wrap;html=1;aspect=fixed;fillColor=#008a00;strokeColor=#005700;fontColor=#ffffff;" parent="143" vertex="1">
                    <mxGeometry y="30.434782608695656" width="22.826086956521742" height="22.826086956521742" as="geometry"/>
                </mxCell>
                <mxCell id="128" value="c'" style="ellipse;whiteSpace=wrap;html=1;aspect=fixed;fillColor=#008a00;strokeColor=#005700;fontColor=#ffffff;" parent="143" vertex="1">
                    <mxGeometry x="38.043749999999996" y="30.434782608695656" width="22.826086956521742" height="22.826086956521742" as="geometry"/>
                </mxCell>
                <mxCell id="129" style="edgeStyle=none;html=1;fontFamily=Courier New;" parent="143" source="127" target="128" edge="1">
                    <mxGeometry relative="1" as="geometry"/>
                </mxCell>
                <mxCell id="130" value="c" style="ellipse;whiteSpace=wrap;html=1;aspect=fixed;fillColor=#008a00;strokeColor=#005700;fontColor=#ffffff;" parent="143" vertex="1">
                    <mxGeometry y="60.86956521739131" width="22.826086956521742" height="22.826086956521742" as="geometry"/>
                </mxCell>
                <mxCell id="131" value="d'" style="ellipse;whiteSpace=wrap;html=1;aspect=fixed;fillColor=#008a00;strokeColor=#005700;fontColor=#ffffff;" parent="143" vertex="1">
                    <mxGeometry x="38.043749999999996" y="60.86956521739131" width="22.826086956521742" height="22.826086956521742" as="geometry"/>
                </mxCell>
                <mxCell id="132" style="edgeStyle=none;html=1;fontFamily=Courier New;" parent="143" source="130" target="131" edge="1">
                    <mxGeometry relative="1" as="geometry"/>
                </mxCell>
                <mxCell id="133" value="d" style="ellipse;whiteSpace=wrap;html=1;aspect=fixed;fillColor=#008a00;strokeColor=#005700;fontColor=#ffffff;" parent="143" vertex="1">
                    <mxGeometry y="91.30434782608697" width="22.826086956521742" height="22.826086956521742" as="geometry"/>
                </mxCell>
                <mxCell id="134" value="e'" style="ellipse;whiteSpace=wrap;html=1;aspect=fixed;fillColor=#008a00;strokeColor=#005700;fontColor=#ffffff;" parent="143" vertex="1">
                    <mxGeometry x="38.043749999999996" y="91.30434782608697" width="22.826086956521742" height="22.826086956521742" as="geometry"/>
                </mxCell>
                <mxCell id="139" style="edgeStyle=none;html=1;entryX=0;entryY=0.5;entryDx=0;entryDy=0;fontFamily=Courier New;" parent="143" source="133" target="134" edge="1">
                    <mxGeometry relative="1" as="geometry"/>
                </mxCell>
                <mxCell id="135" value="e" style="ellipse;whiteSpace=wrap;html=1;aspect=fixed;fillColor=#1ba1e2;strokeColor=#006EAF;fontColor=#ffffff;" parent="143" vertex="1">
                    <mxGeometry y="121.73913043478262" width="22.826086956521742" height="22.826086956521742" as="geometry"/>
                </mxCell>
                <mxCell id="136" value="b'" style="ellipse;whiteSpace=wrap;html=1;aspect=fixed;fillColor=#1ba1e2;strokeColor=#006EAF;fontColor=#ffffff;" parent="143" vertex="1">
                    <mxGeometry x="38.043749999999996" y="121.73913043478262" width="22.826086956521742" height="22.826086956521742" as="geometry"/>
                </mxCell>
                <mxCell id="140" style="edgeStyle=none;html=1;fontFamily=Courier New;" parent="143" source="135" target="136" edge="1">
                    <mxGeometry relative="1" as="geometry"/>
                </mxCell>
                <mxCell id="137" value="g" style="ellipse;whiteSpace=wrap;html=1;aspect=fixed;fillColor=#1ba1e2;strokeColor=#006EAF;fontColor=#ffffff;" parent="143" vertex="1">
                    <mxGeometry y="152.17391304347828" width="22.826086956521742" height="22.826086956521742" as="geometry"/>
                </mxCell>
                <mxCell id="138" value="f'" style="ellipse;whiteSpace=wrap;html=1;aspect=fixed;fillColor=#1ba1e2;strokeColor=#006EAF;fontColor=#ffffff;" parent="143" vertex="1">
                    <mxGeometry x="38.043749999999996" y="152.17391304347828" width="22.826086956521742" height="22.826086956521742" as="geometry"/>
                </mxCell>
                <mxCell id="142" style="edgeStyle=none;html=1;fontFamily=Courier New;" parent="143" source="137" target="138" edge="1">
                    <mxGeometry relative="1" as="geometry"/>
                </mxCell>
                <mxCell id="200" value="&lt;span&gt;&lt;font face=&quot;Courier New&quot;&gt;Monaco Editor&lt;/font&gt;&lt;/span&gt;" style="rounded=0;whiteSpace=wrap;html=1;shadow=0;strokeColor=default;fillColor=#E8E8E8;" parent="1" vertex="1">
                    <mxGeometry x="25" y="-990" width="200" height="40" as="geometry"/>
                </mxCell>
                <mxCell id="201" value="&lt;span&gt;&lt;font face=&quot;Courier New&quot;&gt;Headed AST&lt;/font&gt;&lt;/span&gt;" style="rounded=0;whiteSpace=wrap;html=1;shadow=0;strokeColor=default;fillColor=#B8B8B8;" parent="1" vertex="1">
                    <mxGeometry x="225" y="-990" width="200" height="40" as="geometry"/>
                </mxCell>
                <mxCell id="202" value="&lt;font face=&quot;Courier New&quot;&gt;GumTree Algorithm&lt;/font&gt;" style="rounded=0;whiteSpace=wrap;html=1;shadow=0;strokeColor=default;fillColor=#B8B8B8;" parent="1" vertex="1">
                    <mxGeometry x="425" y="-990" width="200" height="40" as="geometry"/>
                </mxCell>
                <mxCell id="204" value="&lt;span&gt;&lt;font face=&quot;Courier New&quot;&gt;Minimum Edit Script&lt;/font&gt;&lt;/span&gt;" style="rounded=0;whiteSpace=wrap;html=1;shadow=0;strokeColor=default;fillColor=#B8B8B8;" parent="1" vertex="1">
                    <mxGeometry x="625" y="-990" width="200" height="40" as="geometry"/>
                </mxCell>
                <mxCell id="207" value="&lt;font face=&quot;Courier New&quot;&gt;&amp;nbsp;(begin&lt;br&gt;&amp;nbsp; &amp;nbsp;(&lt;/font&gt;&lt;span style=&quot;font-family: &amp;#34;courier new&amp;#34;&quot;&gt;(touch nose)&lt;/span&gt;&lt;font face=&quot;Courier New&quot;&gt;&amp;nbsp;&quot;&lt;/font&gt;&lt;span style=&quot;font-family: &amp;#34;courier new&amp;#34;&quot;&gt;apple&lt;/span&gt;&lt;font face=&quot;Courier New&quot;&gt;&quot;))&lt;/font&gt;" style="rounded=1;whiteSpace=wrap;html=1;align=left;" parent="1" vertex="1">
                    <mxGeometry x="30" y="-780" width="190" height="60" as="geometry"/>
                </mxCell>
                <mxCell id="225" style="edgeStyle=none;html=1;labelBackgroundColor=#FFCCCC;fontFamily=Helvetica;" parent="1" source="220" target="221" edge="1">
                    <mxGeometry relative="1" as="geometry"/>
                </mxCell>
                <mxCell id="220" value="Detect change" style="text;html=1;align=center;verticalAlign=middle;resizable=0;points=[];autosize=1;strokeColor=none;fillColor=none;" parent="1" vertex="1">
                    <mxGeometry x="80" y="-1020" width="90" height="20" as="geometry"/>
                </mxCell>
                <mxCell id="226" style="edgeStyle=none;html=1;labelBackgroundColor=#FFCCCC;fontFamily=Helvetica;" parent="1" source="221" target="223" edge="1">
                    <mxGeometry relative="1" as="geometry"/>
                </mxCell>
                <mxCell id="221" value="Construct changed AST" style="text;html=1;align=center;verticalAlign=middle;resizable=0;points=[];autosize=1;strokeColor=none;fillColor=none;" parent="1" vertex="1">
                    <mxGeometry x="255" y="-1020" width="140" height="20" as="geometry"/>
                </mxCell>
                <mxCell id="227" style="edgeStyle=none;html=1;labelBackgroundColor=#FFCCCC;fontFamily=Helvetica;" parent="1" source="223" target="224" edge="1">
                    <mxGeometry relative="1" as="geometry"/>
                </mxCell>
                <mxCell id="223" value="&lt;font face=&quot;Helvetica&quot;&gt;Compute AST mapping&lt;/font&gt;" style="text;html=1;align=center;verticalAlign=middle;resizable=0;points=[];autosize=1;strokeColor=none;fillColor=none;fontFamily=Courier New;" parent="1" vertex="1">
                    <mxGeometry x="455" y="-1020" width="140" height="20" as="geometry"/>
                </mxCell>
                <mxCell id="224" value="Compute edit script" style="text;html=1;align=center;verticalAlign=middle;resizable=0;points=[];autosize=1;strokeColor=none;fillColor=none;fontFamily=Helvetica;" parent="1" vertex="1">
                    <mxGeometry x="665" y="-1020" width="120" height="20" as="geometry"/>
                </mxCell>
                <mxCell id="229" value="" style="rounded=0;whiteSpace=wrap;html=1;shadow=0;strokeColor=default;fillColor=#B8B8B8;" parent="1" vertex="1">
                    <mxGeometry x="625" y="-520" width="200" height="300" as="geometry"/>
                </mxCell>
                <mxCell id="230" value="" style="rounded=0;whiteSpace=wrap;html=1;shadow=0;strokeColor=default;fillColor=#B8B8B8;" parent="1" vertex="1">
                    <mxGeometry x="425" y="-520" width="200" height="300" as="geometry"/>
                </mxCell>
                <mxCell id="231" value="" style="rounded=0;whiteSpace=wrap;html=1;shadow=0;strokeColor=default;fillColor=#B8B8B8;" parent="1" vertex="1">
                    <mxGeometry x="225" y="-520" width="200" height="300" as="geometry"/>
                </mxCell>
                <mxCell id="294" value="&lt;span&gt;&lt;font face=&quot;Courier New&quot;&gt;Conflict Free Replicated AST&amp;nbsp;&lt;/font&gt;&lt;/span&gt;" style="rounded=0;whiteSpace=wrap;html=1;shadow=0;strokeColor=default;fillColor=#B8B8B8;" parent="1" vertex="1">
                    <mxGeometry x="225" y="-560" width="200" height="40" as="geometry"/>
                </mxCell>
                <mxCell id="295" value="&lt;span style=&quot;font-family: &amp;#34;courier new&amp;#34;&quot;&gt;Conflict Free Replicated AST&amp;nbsp;&lt;/span&gt;" style="rounded=0;whiteSpace=wrap;html=1;shadow=0;strokeColor=default;fillColor=#B8B8B8;" parent="1" vertex="1">
                    <mxGeometry x="425" y="-560" width="200" height="40" as="geometry"/>
                </mxCell>
                <mxCell id="296" value="&lt;span&gt;&lt;font face=&quot;Courier New&quot;&gt;Monaco Editor&lt;/font&gt;&lt;/span&gt;" style="rounded=0;whiteSpace=wrap;html=1;shadow=0;strokeColor=default;fillColor=#B8B8B8;" parent="1" vertex="1">
                    <mxGeometry x="625" y="-560" width="200" height="40" as="geometry"/>
                </mxCell>
                <mxCell id="298" style="edgeStyle=none;html=1;labelBackgroundColor=#FFCCCC;fontFamily=Helvetica;" parent="1" source="299" target="301" edge="1">
                    <mxGeometry relative="1" as="geometry"/>
                </mxCell>
                <mxCell id="299" value="Propagate serialized changes" style="text;html=1;align=center;verticalAlign=middle;resizable=0;points=[];autosize=1;strokeColor=none;fillColor=none;" parent="1" vertex="1">
                    <mxGeometry x="40" y="-590" width="170" height="20" as="geometry"/>
                </mxCell>
                <mxCell id="300" style="edgeStyle=none;html=1;labelBackgroundColor=#FFCCCC;fontFamily=Helvetica;" parent="1" source="301" target="303" edge="1">
                    <mxGeometry relative="1" as="geometry"/>
                </mxCell>
                <mxCell id="301" value="Update local change script" style="text;html=1;align=center;verticalAlign=middle;resizable=0;points=[];autosize=1;strokeColor=none;fillColor=none;" parent="1" vertex="1">
                    <mxGeometry x="245" y="-590" width="160" height="20" as="geometry"/>
                </mxCell>
                <mxCell id="302" style="edgeStyle=none;html=1;labelBackgroundColor=#FFCCCC;fontFamily=Helvetica;" parent="1" source="303" target="304" edge="1">
                    <mxGeometry relative="1" as="geometry"/>
                </mxCell>
                <mxCell id="303" value="&lt;font face=&quot;Helvetica&quot;&gt;Rollback &amp;amp; apply changes&lt;/font&gt;" style="text;html=1;align=center;verticalAlign=middle;resizable=0;points=[];autosize=1;strokeColor=none;fillColor=none;fontFamily=Courier New;" parent="1" vertex="1">
                    <mxGeometry x="450" y="-590" width="150" height="20" as="geometry"/>
                </mxCell>
                <mxCell id="304" value="Reflect changes" style="text;html=1;align=center;verticalAlign=middle;resizable=0;points=[];autosize=1;strokeColor=none;fillColor=none;fontFamily=Helvetica;" parent="1" vertex="1">
                    <mxGeometry x="675" y="-590" width="100" height="20" as="geometry"/>
                </mxCell>
                <mxCell id="305" value="" style="rounded=0;whiteSpace=wrap;html=1;shadow=0;strokeColor=default;fillColor=#B8B8B8;" parent="1" vertex="1">
                    <mxGeometry x="25" y="-520" width="200" height="300" as="geometry"/>
                </mxCell>
                <mxCell id="336" value="&lt;span&gt;&lt;font face=&quot;Courier New&quot;&gt;Replicated Operation&lt;/font&gt;&lt;/span&gt;" style="rounded=0;whiteSpace=wrap;html=1;shadow=0;strokeColor=default;fillColor=#B8B8B8;" parent="1" vertex="1">
                    <mxGeometry x="25" y="-560" width="200" height="40" as="geometry"/>
                </mxCell>
                <mxCell id="339" value="&lt;font face=&quot;Courier New&quot;&gt;Replica&lt;/font&gt;" style="rounded=1;whiteSpace=wrap;html=1;shadow=0;fontFamily=Helvetica;strokeColor=default;fillColor=default;" parent="1" vertex="1">
                    <mxGeometry x="108.64" y="-340" width="61.36" height="40" as="geometry"/>
                </mxCell>
                <mxCell id="340" value="&lt;font face=&quot;Courier New&quot;&gt;Replica&lt;/font&gt;" style="rounded=1;whiteSpace=wrap;html=1;shadow=0;fontFamily=Helvetica;strokeColor=default;fillColor=default;" parent="1" vertex="1">
                    <mxGeometry x="148.18" y="-390" width="65" height="40" as="geometry"/>
                </mxCell>
                <mxCell id="341" value="&lt;font face=&quot;Courier New&quot;&gt;Replica&lt;/font&gt;" style="rounded=1;whiteSpace=wrap;html=1;shadow=0;fontFamily=Helvetica;strokeColor=default;fillColor=default;" parent="1" vertex="1">
                    <mxGeometry x="108.64" y="-440" width="61.36" height="40" as="geometry"/>
                </mxCell>
                <mxCell id="342" value="&lt;font face=&quot;Courier New&quot;&gt;Replica&lt;/font&gt;" style="rounded=1;whiteSpace=wrap;html=1;shadow=0;fontFamily=Helvetica;strokeColor=default;fillColor=default;" parent="1" vertex="1">
                    <mxGeometry x="30" y="-420" width="66.82" height="40" as="geometry"/>
                </mxCell>
                <mxCell id="344" value="&lt;font face=&quot;Courier New&quot;&gt;Replica&lt;/font&gt;" style="rounded=1;whiteSpace=wrap;html=1;shadow=0;fontFamily=Helvetica;strokeColor=default;fillColor=default;" parent="1" vertex="1">
                    <mxGeometry x="30" y="-360" width="66.82" height="40" as="geometry"/>
                </mxCell>
                <mxCell id="345" value="" style="endArrow=none;html=1;labelBackgroundColor=#FFCCCC;fontFamily=Courier New;" parent="1" source="342" target="340" edge="1">
                    <mxGeometry width="50" height="50" relative="1" as="geometry">
                        <mxPoint x="131.82" y="-410" as="sourcePoint"/>
                        <mxPoint x="181.82" y="-460" as="targetPoint"/>
                    </mxGeometry>
                </mxCell>
                <mxCell id="346" value="" style="endArrow=none;html=1;labelBackgroundColor=#FFCCCC;fontFamily=Courier New;" parent="1" source="341" target="344" edge="1">
                    <mxGeometry width="50" height="50" relative="1" as="geometry">
                        <mxPoint x="106.82" y="-381.80839444531125" as="sourcePoint"/>
                        <mxPoint x="165.00000000000006" y="-368.19160555468875" as="targetPoint"/>
                    </mxGeometry>
                </mxCell>
                <mxCell id="347" value="" style="endArrow=none;html=1;labelBackgroundColor=#FFCCCC;fontFamily=Courier New;" parent="1" source="342" target="339" edge="1">
                    <mxGeometry width="50" height="50" relative="1" as="geometry">
                        <mxPoint x="116.82" y="-371.80839444531125" as="sourcePoint"/>
                        <mxPoint x="175.00000000000006" y="-358.19160555468875" as="targetPoint"/>
                    </mxGeometry>
                </mxCell>
                <mxCell id="348" value="" style="endArrow=none;html=1;labelBackgroundColor=#FFCCCC;fontFamily=Courier New;" parent="1" source="341" target="340" edge="1">
                    <mxGeometry width="50" height="50" relative="1" as="geometry">
                        <mxPoint x="126.82" y="-361.80839444531125" as="sourcePoint"/>
                        <mxPoint x="185.00000000000006" y="-348.19160555468875" as="targetPoint"/>
                    </mxGeometry>
                </mxCell>
                <mxCell id="369" value="" style="group;fillColor=none;" parent="1" vertex="1" connectable="0">
                    <mxGeometry x="156.82" y="-413" width="23.82" height="17" as="geometry"/>
                </mxCell>
                <mxCell id="367" value="" style="rounded=0;whiteSpace=wrap;html=1;shadow=0;fontFamily=Helvetica;fontSize=5;strokeColor=default;fillColor=#D4D4D4;" parent="369" vertex="1">
                    <mxGeometry y="4" width="23.82" height="13" as="geometry"/>
                </mxCell>
                <mxCell id="509" value="&lt;span style=&quot;color: rgb(240 , 240 , 240) ; font-family: &amp;#34;helvetica&amp;#34; ; font-size: 3px ; font-style: normal ; font-weight: 400 ; letter-spacing: normal ; text-align: center ; text-indent: 0px ; text-transform: none ; word-spacing: 0px ; background-color: rgb(42 , 42 , 42) ; display: inline ; float: none&quot;&gt;&amp;nbsp;1. Delete F&amp;nbsp; &amp;nbsp;&lt;br&gt;&lt;/span&gt;&lt;br style=&quot;color: rgb(240 , 240 , 240) ; font-family: &amp;#34;helvetica&amp;#34; ; font-size: 3px ; font-style: normal ; font-weight: 400 ; letter-spacing: normal ; text-align: center ; text-indent: 0px ; text-transform: none ; word-spacing: 0px ; background-color: rgb(42 , 42 , 42)&quot;&gt;&lt;span style=&quot;color: rgb(240 , 240 , 240) ; font-family: &amp;#34;helvetica&amp;#34; ; font-size: 3px ; font-style: normal ; font-weight: 400 ; letter-spacing: normal ; text-align: center ; text-indent: 0px ; text-transform: none ; word-spacing: 0px ; background-color: rgb(42 , 42 , 42) ; display: inline ; float: none&quot;&gt;2. Move b e 0&lt;/span&gt;" style="text;whiteSpace=wrap;html=1;fontSize=3;fontFamily=Helvetica;fillColor=none;" parent="369" vertex="1">
                    <mxGeometry x="1" y="-2" width="22.82" height="12" as="geometry"/>
                </mxCell>
                <mxCell id="374" value="" style="group;fillColor=none;" parent="1" vertex="1" connectable="0">
                    <mxGeometry x="130" y="-387" width="23.819999999999993" height="17" as="geometry"/>
                </mxCell>
                <mxCell id="375" value="" style="rounded=0;whiteSpace=wrap;html=1;shadow=0;fontFamily=Helvetica;fontSize=5;strokeColor=default;fillColor=#D4D4D4;" parent="374" vertex="1">
                    <mxGeometry y="4" width="23.82" height="13" as="geometry"/>
                </mxCell>
                <mxCell id="377" value="" style="group;fillColor=none;" parent="1" vertex="1" connectable="0">
                    <mxGeometry x="63.81999999999999" y="-367" width="23.819999999999993" height="17" as="geometry"/>
                </mxCell>
                <mxCell id="378" value="" style="rounded=0;whiteSpace=wrap;html=1;shadow=0;fontFamily=Helvetica;fontSize=5;strokeColor=default;fillColor=#D4D4D4;" parent="377" vertex="1">
                    <mxGeometry y="4" width="23.82" height="13" as="geometry"/>
                </mxCell>
                <mxCell id="379" value="&lt;span style=&quot;color: rgb(240 , 240 , 240) ; font-family: &amp;#34;helvetica&amp;#34; ; font-size: 3px ; font-style: normal ; font-weight: 400 ; letter-spacing: normal ; text-align: center ; text-indent: 0px ; text-transform: none ; word-spacing: 0px ; background-color: rgb(42 , 42 , 42) ; display: inline ; float: none&quot;&gt;&amp;nbsp;1. Delete F&amp;nbsp; &amp;nbsp;&lt;br&gt;&lt;/span&gt;&lt;br style=&quot;color: rgb(240 , 240 , 240) ; font-family: &amp;#34;helvetica&amp;#34; ; font-size: 3px ; font-style: normal ; font-weight: 400 ; letter-spacing: normal ; text-align: center ; text-indent: 0px ; text-transform: none ; word-spacing: 0px ; background-color: rgb(42 , 42 , 42)&quot;&gt;&lt;span style=&quot;color: rgb(240 , 240 , 240) ; font-family: &amp;#34;helvetica&amp;#34; ; font-size: 3px ; font-style: normal ; font-weight: 400 ; letter-spacing: normal ; text-align: center ; text-indent: 0px ; text-transform: none ; word-spacing: 0px ; background-color: rgb(42 , 42 , 42) ; display: inline ; float: none&quot;&gt;2. Move b e 0&lt;/span&gt;" style="text;whiteSpace=wrap;html=1;fontSize=3;fontFamily=Helvetica;fillColor=none;" parent="377" vertex="1">
                    <mxGeometry x="1.18" y="-2" width="22.82" height="12" as="geometry"/>
                </mxCell>
                <mxCell id="410" value="&lt;div&gt;&lt;font face=&quot;Courier New&quot;&gt;&amp;nbsp;1. Add a b 0&lt;/font&gt;&lt;/div&gt;&lt;div&gt;&lt;font face=&quot;Courier New&quot;&gt;&amp;nbsp;2. Add c b 0&lt;/font&gt;&lt;/div&gt;&lt;div&gt;&lt;font face=&quot;Courier New&quot;&gt;&amp;nbsp;3. Add d b 1&lt;/font&gt;&lt;/div&gt;&lt;div&gt;&lt;font face=&quot;Courier New&quot;&gt;&amp;nbsp;4. Add e a 1&lt;/font&gt;&lt;/div&gt;&lt;div&gt;&lt;font face=&quot;Courier New&quot;&gt;&amp;nbsp;5. Add f e 0&lt;/font&gt;&lt;/div&gt;&lt;div&gt;&lt;font face=&quot;Courier New&quot;&gt;&amp;nbsp;6. Add g e 1&lt;/font&gt;&lt;/div&gt;&lt;div&gt;&lt;font face=&quot;Courier New&quot;&gt;&amp;nbsp; &amp;nbsp; &amp;nbsp;....&lt;/font&gt;&lt;/div&gt;&lt;div&gt;&lt;font face=&quot;Courier New&quot;&gt;&amp;nbsp;n. Set c &quot;eat&quot;&lt;/font&gt;&lt;/div&gt;&lt;div&gt;&lt;span style=&quot;font-family: &amp;#34;courier new&amp;#34;&quot;&gt;&amp;nbsp;m. Set g &quot;nose&quot;&lt;/span&gt;&lt;font face=&quot;Courier New&quot;&gt;&lt;br&gt;&lt;/font&gt;&lt;/div&gt;" style="rounded=1;whiteSpace=wrap;html=1;align=left;arcSize=9;" parent="1" vertex="1">
                    <mxGeometry x="260" y="-380" width="130" height="150" as="geometry"/>
                </mxCell>
                <mxCell id="398" value="" style="group" parent="1" vertex="1" connectable="0">
                    <mxGeometry x="247.5" y="-510" width="155" height="90" as="geometry"/>
                </mxCell>
                <mxCell id="399" value="&amp;nbsp;1.&lt;br&gt;&lt;br&gt;&lt;br&gt;&amp;nbsp;2." style="rounded=1;whiteSpace=wrap;html=1;align=left;arcSize=9;" parent="398" vertex="1">
                    <mxGeometry width="155" height="90" as="geometry"/>
                </mxCell>
                <mxCell id="400" value="" style="group" parent="398" vertex="1" connectable="0">
                    <mxGeometry x="20" y="9" width="75" height="30" as="geometry"/>
                </mxCell>
                <mxCell id="401" value="&amp;nbsp;Delete" style="rounded=1;whiteSpace=wrap;html=1;align=left;" parent="400" vertex="1">
                    <mxGeometry width="75" height="30" as="geometry"/>
                </mxCell>
                <mxCell id="402" value="f" style="ellipse;whiteSpace=wrap;html=1;aspect=fixed;fillColor=#1ba1e2;strokeColor=#006EAF;fontColor=#ffffff;" parent="400" vertex="1">
                    <mxGeometry x="45" y="5" width="20" height="20" as="geometry"/>
                </mxCell>
                <mxCell id="403" value="&amp;nbsp;Move&amp;nbsp; &amp;nbsp; &amp;nbsp; &amp;nbsp; &amp;nbsp; &amp;nbsp; &amp;nbsp; &amp;nbsp; &amp;nbsp; &amp;nbsp; &amp;nbsp;0" style="rounded=1;whiteSpace=wrap;html=1;align=left;" parent="398" vertex="1">
                    <mxGeometry x="20" y="51" width="125" height="30" as="geometry"/>
                </mxCell>
                <mxCell id="404" value="" style="group" parent="398" vertex="1" connectable="0">
                    <mxGeometry x="20" y="50" width="125" height="30" as="geometry"/>
                </mxCell>
                <mxCell id="405" value="b" style="ellipse;whiteSpace=wrap;html=1;aspect=fixed;fillColor=#008a00;strokeColor=#005700;fontColor=#ffffff;" parent="404" vertex="1">
                    <mxGeometry x="45" y="5" width="20" height="20" as="geometry"/>
                </mxCell>
                <mxCell id="406" value="e" style="ellipse;whiteSpace=wrap;html=1;aspect=fixed;fillColor=#1ba1e2;strokeColor=#006EAF;fontColor=#ffffff;" parent="404" vertex="1">
                    <mxGeometry x="75" y="5" width="20" height="20" as="geometry"/>
                </mxCell>
                <mxCell id="411" value="" style="curved=1;endArrow=classic;html=1;labelBackgroundColor=#FFCCCC;fontFamily=Courier New;fontSize=3;strokeWidth=1;" parent="1" source="399" target="410" edge="1">
                    <mxGeometry width="50" height="50" relative="1" as="geometry">
                        <mxPoint x="400" y="-370" as="sourcePoint"/>
                        <mxPoint x="450" y="-420" as="targetPoint"/>
                        <Array as="points">
                            <mxPoint x="240" y="-410"/>
                            <mxPoint x="230" y="-260"/>
                        </Array>
                    </mxGeometry>
                </mxCell>
                <mxCell id="412" value="" style="group" parent="1" vertex="1" connectable="0">
                    <mxGeometry x="480" y="-360" width="80" height="120" as="geometry"/>
                </mxCell>
                <mxCell id="413" value="" style="rounded=0;whiteSpace=wrap;html=1;fontFamily=Courier New;" parent="412" vertex="1">
                    <mxGeometry width="80" height="120" as="geometry"/>
                </mxCell>
                <mxCell id="414" value="" style="group" parent="412" vertex="1" connectable="0">
                    <mxGeometry x="8" y="8.00000000000009" width="64" height="111.256" as="geometry"/>
                </mxCell>
                <mxCell id="415" value="e" style="ellipse;whiteSpace=wrap;html=1;aspect=fixed;fillColor=#1ba1e2;strokeColor=#006EAF;fontColor=#ffffff;" parent="414" vertex="1">
                    <mxGeometry x="32" y="28" width="16" height="16" as="geometry"/>
                </mxCell>
                <mxCell id="416" value="" style="endArrow=none;html=1;" parent="414" source="415" target="421" edge="1">
                    <mxGeometry width="50" height="50" relative="1" as="geometry">
                        <mxPoint x="232" y="16" as="sourcePoint"/>
                        <mxPoint x="27.969111506854645" y="57.054054863004424" as="targetPoint"/>
                    </mxGeometry>
                </mxCell>
                <mxCell id="417" value="g" style="ellipse;whiteSpace=wrap;html=1;aspect=fixed;fillColor=#1ba1e2;strokeColor=#006EAF;fontColor=#ffffff;" parent="414" vertex="1">
                    <mxGeometry x="48" y="56" width="16" height="16" as="geometry"/>
                </mxCell>
                <mxCell id="418" value="" style="endArrow=none;html=1;" parent="414" source="415" target="417" edge="1">
                    <mxGeometry width="50" height="50" relative="1" as="geometry">
                        <mxPoint x="13.384912814753262" y="-13.987976152059218" as="sourcePoint"/>
                        <mxPoint x="2.656402354703278" y="2.015396467944902" as="targetPoint"/>
                    </mxGeometry>
                </mxCell>
                <mxCell id="419" value="a" style="ellipse;whiteSpace=wrap;html=1;aspect=fixed;fillColor=#1ba1e2;strokeColor=#006EAF;fontColor=#ffffff;" parent="414" vertex="1">
                    <mxGeometry width="16" height="16" as="geometry"/>
                </mxCell>
                <mxCell id="420" value="" style="endArrow=none;html=1;" parent="414" source="419" target="415" edge="1">
                    <mxGeometry width="50" height="50" relative="1" as="geometry">
                        <mxPoint x="-18.61508718524674" y="-41.98797615205922" as="sourcePoint"/>
                        <mxPoint x="20.010446462151414" y="29.06577599373932" as="targetPoint"/>
                    </mxGeometry>
                </mxCell>
                <mxCell id="421" value="b" style="ellipse;whiteSpace=wrap;html=1;aspect=fixed;fillColor=#008a00;strokeColor=#005700;fontColor=#ffffff;" parent="414" vertex="1">
                    <mxGeometry x="16" y="56" width="16" height="16" as="geometry"/>
                </mxCell>
                <mxCell id="422" value="c" style="ellipse;whiteSpace=wrap;html=1;aspect=fixed;fillColor=#008a00;strokeColor=#005700;fontColor=#ffffff;" parent="414" vertex="1">
                    <mxGeometry y="84" width="16" height="16" as="geometry"/>
                </mxCell>
                <mxCell id="423" value="" style="endArrow=none;html=1;" parent="414" source="421" target="422" edge="1">
                    <mxGeometry width="50" height="50" relative="1" as="geometry">
                        <mxPoint x="216" y="44" as="sourcePoint"/>
                        <mxPoint x="256" y="4" as="targetPoint"/>
                    </mxGeometry>
                </mxCell>
                <mxCell id="424" value="d" style="ellipse;whiteSpace=wrap;html=1;aspect=fixed;fillColor=#008a00;strokeColor=#005700;fontColor=#ffffff;" parent="414" vertex="1">
                    <mxGeometry x="32" y="84" width="16" height="16" as="geometry"/>
                </mxCell>
                <mxCell id="425" value="" style="endArrow=none;html=1;" parent="414" source="421" target="424" edge="1">
                    <mxGeometry width="50" height="50" relative="1" as="geometry">
                        <mxPoint x="-2.615087185246739" y="14.012023847940782" as="sourcePoint"/>
                        <mxPoint x="-13.343597645296724" y="30.015396467944903" as="targetPoint"/>
                    </mxGeometry>
                </mxCell>
                <mxCell id="473" value="" style="group" parent="1" vertex="1" connectable="0">
                    <mxGeometry x="480" y="-510" width="40" height="40" as="geometry"/>
                </mxCell>
                <mxCell id="428" value="" style="rounded=0;whiteSpace=wrap;html=1;fontFamily=Courier New;" parent="473" vertex="1">
                    <mxGeometry width="40" height="40" as="geometry"/>
                </mxCell>
                <mxCell id="434" value="a" style="ellipse;whiteSpace=wrap;html=1;aspect=fixed;fillColor=#1ba1e2;strokeColor=#006EAF;fontColor=#ffffff;" parent="473" vertex="1">
                    <mxGeometry x="12" y="12.000000000000085" width="16" height="16" as="geometry"/>
                </mxCell>
                <mxCell id="476" value="" style="group" parent="1" vertex="1" connectable="0">
                    <mxGeometry x="480" y="-460" width="60" height="50" as="geometry"/>
                </mxCell>
                <mxCell id="458" value="" style="rounded=0;whiteSpace=wrap;html=1;fontFamily=Courier New;" parent="476" vertex="1">
                    <mxGeometry width="60" height="50" as="geometry"/>
                </mxCell>
                <mxCell id="474" value="" style="group" parent="476" vertex="1" connectable="0">
                    <mxGeometry x="7.997500000000002" y="5.00272727272727" width="43.63499999999999" height="39.999545454545455" as="geometry"/>
                </mxCell>
                <mxCell id="465" value="b" style="ellipse;whiteSpace=wrap;html=1;aspect=fixed;fillColor=#008a00;strokeColor=#005700;fontColor=#ffffff;" parent="474" vertex="1">
                    <mxGeometry y="25.454545454545453" width="14.544999999999998" height="14.544999999999998" as="geometry"/>
                </mxCell>
                <mxCell id="470" value="a" style="ellipse;whiteSpace=wrap;html=1;aspect=fixed;fillColor=#1ba1e2;strokeColor=#006EAF;fontColor=#ffffff;" parent="474" vertex="1">
                    <mxGeometry x="29.089999999999975" width="14.544999999999998" height="14.544999999999998" as="geometry"/>
                </mxCell>
                <mxCell id="471" value="" style="endArrow=none;html=1;" parent="474" source="470" target="465" edge="1">
                    <mxGeometry width="50" height="50" relative="1" as="geometry">
                        <mxPoint x="210.90250000000003" y="-10.909090909090907" as="sourcePoint"/>
                        <mxPoint x="25.444253513000547" y="26.423432721581193" as="targetPoint"/>
                    </mxGeometry>
                </mxCell>
                <mxCell id="481" value="&lt;font style=&quot;font-size: 12px&quot;&gt;...&lt;/font&gt;" style="text;html=1;align=center;verticalAlign=middle;resizable=0;points=[];autosize=1;strokeColor=none;fillColor=none;fontSize=3;fontFamily=Courier New;" parent="1" vertex="1">
                    <mxGeometry x="480" y="-392" width="40" height="10" as="geometry"/>
                </mxCell>
                <mxCell id="482" value="&lt;font face=&quot;Courier New&quot;&gt;&amp;nbsp;(begin&lt;br&gt;&amp;nbsp; &amp;nbsp;(&lt;/font&gt;&lt;span style=&quot;font-family: &amp;#34;courier new&amp;#34;&quot;&gt;(touch nose)&lt;/span&gt;&lt;font face=&quot;Courier New&quot;&gt;&amp;nbsp;&quot;apple&quot;))&lt;/font&gt;" style="rounded=1;whiteSpace=wrap;html=1;align=left;" parent="1" vertex="1">
                    <mxGeometry x="630" y="-400" width="190" height="60" as="geometry"/>
                </mxCell>
                <mxCell id="483" value="" style="curved=1;endArrow=classic;html=1;labelBackgroundColor=#FFCCCC;fontFamily=Courier New;fontSize=12;strokeWidth=1;" parent="1" source="224" target="299" edge="1">
                    <mxGeometry width="50" height="50" relative="1" as="geometry">
                        <mxPoint x="802.5" y="-1010" as="sourcePoint"/>
                        <mxPoint x="852.5" y="-1060" as="targetPoint"/>
                        <Array as="points">
                            <mxPoint x="850" y="-1010"/>
                            <mxPoint x="850" y="-960"/>
                            <mxPoint x="850" y="-670"/>
                            <mxPoint x="850" y="-620"/>
                            <mxPoint y="-650"/>
                            <mxPoint y="-580"/>
                        </Array>
                    </mxGeometry>
                </mxCell>
                <mxCell id="484" value="" style="endArrow=classic;html=1;labelBackgroundColor=#FFCCCC;fontFamily=Courier New;fontSize=12;strokeWidth=1;dashed=1;" parent="1" source="14" target="160" edge="1">
                    <mxGeometry width="50" height="50" relative="1" as="geometry">
                        <mxPoint x="340" y="-770" as="sourcePoint"/>
                        <mxPoint x="390" y="-820" as="targetPoint"/>
                    </mxGeometry>
                </mxCell>
                <mxCell id="485" value="" style="endArrow=classic;html=1;labelBackgroundColor=#FFCCCC;fontFamily=Courier New;fontSize=12;strokeWidth=1;dashed=1;" parent="1" source="207" target="162" edge="1">
                    <mxGeometry width="50" height="50" relative="1" as="geometry">
                        <mxPoint x="340" y="-770" as="sourcePoint"/>
                        <mxPoint x="390" y="-820" as="targetPoint"/>
                    </mxGeometry>
                </mxCell>
                <mxCell id="486" value="" style="endArrow=classic;html=1;labelBackgroundColor=#FFCCCC;fontFamily=Courier New;fontSize=12;strokeWidth=1;dashed=1;" parent="1" source="160" target="190" edge="1">
                    <mxGeometry width="50" height="50" relative="1" as="geometry">
                        <mxPoint x="340" y="-770" as="sourcePoint"/>
                        <mxPoint x="390" y="-820" as="targetPoint"/>
                    </mxGeometry>
                </mxCell>
                <mxCell id="487" value="" style="endArrow=classic;html=1;labelBackgroundColor=#FFCCCC;fontFamily=Courier New;fontSize=12;strokeWidth=1;dashed=1;" parent="1" source="162" target="190" edge="1">
                    <mxGeometry width="50" height="50" relative="1" as="geometry">
                        <mxPoint x="340" y="-770" as="sourcePoint"/>
                        <mxPoint x="390" y="-820" as="targetPoint"/>
                    </mxGeometry>
                </mxCell>
                <mxCell id="488" value="" style="endArrow=classic;html=1;labelBackgroundColor=#FFCCCC;fontFamily=Courier New;fontSize=12;strokeWidth=1;dashed=1;" parent="1" source="190" target="187" edge="1">
                    <mxGeometry width="50" height="50" relative="1" as="geometry">
                        <mxPoint x="610" y="-770" as="sourcePoint"/>
                        <mxPoint x="660" y="-820" as="targetPoint"/>
                    </mxGeometry>
                </mxCell>
                <mxCell id="493" style="edgeStyle=none;html=1;dashed=1;labelBackgroundColor=#FFCCCC;fontFamily=Courier New;fontSize=12;strokeWidth=1;endArrow=none;endFill=0;" parent="1" source="491" target="410" edge="1">
                    <mxGeometry relative="1" as="geometry">
                        <Array as="points">
                            <mxPoint x="400" y="-368"/>
                        </Array>
                    </mxGeometry>
                </mxCell>
                <mxCell id="491" value="" style="shape=curlyBracket;whiteSpace=wrap;html=1;rounded=1;shadow=0;fontFamily=Courier New;fontSize=12;strokeColor=default;fillColor=#D4D4D4;dashed=1;" parent="1" vertex="1">
                    <mxGeometry x="411" y="-510" width="10" height="284" as="geometry"/>
                </mxCell>
                <mxCell id="494" value="" style="endArrow=classic;html=1;labelBackgroundColor=#FFCCCC;fontFamily=Courier New;fontSize=12;strokeWidth=1;dashed=1;" parent="1" source="413" target="482" edge="1">
                    <mxGeometry width="50" height="50" relative="1" as="geometry">
                        <mxPoint x="375" y="-750" as="sourcePoint"/>
                        <mxPoint x="495" y="-780" as="targetPoint"/>
                    </mxGeometry>
                </mxCell>
                <mxCell id="496" value="" style="rounded=1;whiteSpace=wrap;html=1;shadow=0;dashed=1;fontFamily=Courier New;fontSize=12;strokeColor=default;fillColor=none;" parent="1" vertex="1">
                    <mxGeometry x="104.64" y="-344" width="69.36" height="48" as="geometry"/>
                </mxCell>
                <mxCell id="370" value="" style="group;fillColor=none;" parent="1" vertex="1" connectable="0">
                    <mxGeometry x="115.82" y="-350" width="23.819999999999993" height="17" as="geometry"/>
                </mxCell>
                <mxCell id="371" value="" style="rounded=0;whiteSpace=wrap;html=1;shadow=0;fontFamily=Helvetica;fontSize=5;strokeColor=default;fillColor=#D4D4D4;" parent="370" vertex="1">
                    <mxGeometry y="4" width="23.82" height="13" as="geometry"/>
                </mxCell>
                <mxCell id="507" value="&lt;span style=&quot;color: rgb(240 , 240 , 240) ; font-family: &amp;#34;helvetica&amp;#34; ; font-size: 3px ; font-style: normal ; font-weight: 400 ; letter-spacing: normal ; text-align: center ; text-indent: 0px ; text-transform: none ; word-spacing: 0px ; background-color: rgb(42 , 42 , 42) ; display: inline ; float: none&quot;&gt;&amp;nbsp;1. Delete F&amp;nbsp; &amp;nbsp;&lt;br&gt;&lt;/span&gt;&lt;br style=&quot;color: rgb(240 , 240 , 240) ; font-family: &amp;#34;helvetica&amp;#34; ; font-size: 3px ; font-style: normal ; font-weight: 400 ; letter-spacing: normal ; text-align: center ; text-indent: 0px ; text-transform: none ; word-spacing: 0px ; background-color: rgb(42 , 42 , 42)&quot;&gt;&lt;span style=&quot;color: rgb(240 , 240 , 240) ; font-family: &amp;#34;helvetica&amp;#34; ; font-size: 3px ; font-style: normal ; font-weight: 400 ; letter-spacing: normal ; text-align: center ; text-indent: 0px ; text-transform: none ; word-spacing: 0px ; background-color: rgb(42 , 42 , 42) ; display: inline ; float: none&quot;&gt;2. Move b e 0&lt;/span&gt;" style="text;whiteSpace=wrap;html=1;fontSize=3;fontFamily=Helvetica;fillColor=none;" parent="370" vertex="1">
                    <mxGeometry x="1.1800000000000141" y="-2" width="22.82" height="12" as="geometry"/>
                </mxCell>
                <mxCell id="497" value="" style="endArrow=classic;html=1;dashed=1;labelBackgroundColor=#FFCCCC;fontFamily=Courier New;fontSize=12;strokeWidth=1;" parent="1" source="496" target="231" edge="1">
                    <mxGeometry width="50" height="50" relative="1" as="geometry">
                        <mxPoint x="250" y="-330" as="sourcePoint"/>
                        <mxPoint x="300" y="-380" as="targetPoint"/>
                        <Array as="points">
                            <mxPoint x="200" y="-320"/>
                        </Array>
                    </mxGeometry>
                </mxCell>
                <mxCell id="498" value="&lt;font style=&quot;font-size: 6px&quot;&gt;per replica&lt;/font&gt;" style="text;html=1;align=center;verticalAlign=middle;resizable=0;points=[];autosize=1;strokeColor=none;fillColor=none;fontSize=12;fontFamily=Courier New;" parent="1" vertex="1">
                    <mxGeometry x="173" y="-326" width="50" height="20" as="geometry"/>
                </mxCell>
                <mxCell id="500" value="change 1" style="text;html=1;align=center;verticalAlign=middle;resizable=0;points=[];autosize=1;strokeColor=none;fillColor=none;fontSize=6;fontFamily=Courier New;" parent="1" vertex="1">
                    <mxGeometry x="425" y="-470" width="40" height="10" as="geometry"/>
                </mxCell>
                <mxCell id="501" value="change 2" style="text;html=1;align=center;verticalAlign=middle;resizable=0;points=[];autosize=1;strokeColor=none;fillColor=none;fontSize=6;fontFamily=Courier New;" parent="1" vertex="1">
                    <mxGeometry x="425" y="-406" width="40" height="10" as="geometry"/>
                </mxCell>
                <mxCell id="502" value="change n" style="text;html=1;align=center;verticalAlign=middle;resizable=0;points=[];autosize=1;strokeColor=none;fillColor=none;fontSize=6;fontFamily=Courier New;" parent="1" vertex="1">
                    <mxGeometry x="425" y="-373" width="40" height="10" as="geometry"/>
                </mxCell>
                <mxCell id="504" value="" style="endArrow=classic;html=1;labelBackgroundColor=#FFCCCC;fontFamily=Courier New;fontSize=6;strokeWidth=1;" parent="1" edge="1">
                    <mxGeometry width="50" height="50" relative="1" as="geometry">
                        <mxPoint x="480" y="-413.00210526315783" as="sourcePoint"/>
                        <mxPoint x="480" y="-389.91" as="targetPoint"/>
                        <Array as="points">
                            <mxPoint x="462" y="-401.16"/>
                        </Array>
                    </mxGeometry>
                </mxCell>
                <mxCell id="505" value="" style="endArrow=classic;html=1;labelBackgroundColor=#FFCCCC;fontFamily=Courier New;fontSize=6;strokeWidth=1;" parent="1" edge="1">
                    <mxGeometry width="50" height="50" relative="1" as="geometry">
                        <mxPoint x="480" y="-476.54210526315774" as="sourcePoint"/>
                        <mxPoint x="480" y="-453.44999999999993" as="targetPoint"/>
                        <Array as="points">
                            <mxPoint x="462" y="-464.69999999999993"/>
                        </Array>
                    </mxGeometry>
                </mxCell>
                <mxCell id="506" value="" style="endArrow=classic;html=1;labelBackgroundColor=#FFCCCC;fontFamily=Courier New;fontSize=6;strokeWidth=1;" parent="1" edge="1">
                    <mxGeometry width="50" height="50" relative="1" as="geometry">
                        <mxPoint x="480" y="-379.5421052631578" as="sourcePoint"/>
                        <mxPoint x="480" y="-356.45" as="targetPoint"/>
                        <Array as="points">
                            <mxPoint x="462" y="-367.7"/>
                        </Array>
                    </mxGeometry>
                </mxCell>
                <mxCell id="508" value="&lt;span style=&quot;color: rgb(240 , 240 , 240) ; font-family: &amp;#34;helvetica&amp;#34; ; font-size: 3px ; font-style: normal ; font-weight: 400 ; letter-spacing: normal ; text-align: center ; text-indent: 0px ; text-transform: none ; word-spacing: 0px ; background-color: rgb(42 , 42 , 42) ; display: inline ; float: none&quot;&gt;&amp;nbsp;1. Delete F&amp;nbsp; &amp;nbsp;&lt;br&gt;&lt;/span&gt;&lt;br style=&quot;color: rgb(240 , 240 , 240) ; font-family: &amp;#34;helvetica&amp;#34; ; font-size: 3px ; font-style: normal ; font-weight: 400 ; letter-spacing: normal ; text-align: center ; text-indent: 0px ; text-transform: none ; word-spacing: 0px ; background-color: rgb(42 , 42 , 42)&quot;&gt;&lt;span style=&quot;color: rgb(240 , 240 , 240) ; font-family: &amp;#34;helvetica&amp;#34; ; font-size: 3px ; font-style: normal ; font-weight: 400 ; letter-spacing: normal ; text-align: center ; text-indent: 0px ; text-transform: none ; word-spacing: 0px ; background-color: rgb(42 , 42 , 42) ; display: inline ; float: none&quot;&gt;2. Move b e 0&lt;/span&gt;" style="text;whiteSpace=wrap;html=1;fontSize=3;fontFamily=Helvetica;fillColor=none;" parent="1" vertex="1">
                    <mxGeometry x="131" y="-389" width="22.82" height="12" as="geometry"/>
                </mxCell>
                <mxCell id="510" value="" style="rounded=0;whiteSpace=wrap;html=1;fillColor=none;strokeColor=none;" vertex="1" parent="1">
                    <mxGeometry y="-1100" width="850" height="950" as="geometry"/>
                </mxCell>
            </root>
        </mxGraphModel>
    </diagram>
</mxfile>